<svg xmlns="http://www.w3.org/2000/svg" viewBox="0 0 512 512" role="img" aria-label="Bagats AI scales icon">
  <defs>
    <pattern id="halftone" width="8" height="8" patternUnits="userSpaceOnUse">
      <circle cx="1.5" cy="1.5" r="1.3" fill="#007f8c" opacity="0.85"/>
      <circle cx="5.5" cy="5.5" r="1.2" fill="#007f8c" opacity="0.7"/>
    </pattern>
    <filter id="soft-shadow" x="-10%" y="-10%" width="120%" height="120%">
      <feDropShadow dx="0" dy="3" stdDeviation="1.5" flood-color="#05072e" flood-opacity="0.18"/>
    </filter>
  </defs>

  <rect width="512" height="512" fill="#efe4b3"/>
  <rect width="512" height="512" fill="#f4ebc5" opacity="0.7"/>

  <path d="M275 68c71 35 118 92 142 173 22 74 8 132-40 174-58 51-139 52-205 3-74-54-102-133-72-214 26-72 90-128 175-136Z" fill="url(#halftone)" opacity="0.7"/>
  <path d="M302 104c46 24 86 68 112 132 19 47 18 87-4 118-30 43-86 55-139 30-63-30-99-86-92-143 7-60 53-112 123-137Z" fill="#18aebd" opacity="0.18"/>

  <g filter="url(#soft-shadow)">
    <g fill="none" stroke="#05072e" stroke-linecap="round" stroke-linejoin="round">
      <path d="M256 73v276" stroke-width="13"/>
      <path d="M176 100h160" stroke-width="18"/>
      <path d="M144 94 90 231" stroke-width="8"/>
      <path d="M144 94l54 137" stroke-width="8"/>
      <path d="M368 94l-54 137" stroke-width="8"/>
      <path d="M368 94l54 137" stroke-width="8"/>
      <path d="M144 94h224" stroke-width="6"/>
      <circle cx="144" cy="94" r="12" fill="#efe4b3" stroke-width="7"/>
      <circle cx="368" cy="94" r="12" fill="#efe4b3" stroke-width="7"/>
      <circle cx="256" cy="91" r="28" fill="#efe4b3" stroke-width="9"/>
      <path d="M250 60c-2-11 6-22 17-24" stroke-width="8"/>
      <circle cx="256" cy="91" r="7" fill="#05072e" stroke-width="1"/>
      <path d="M238 123h36v21h-36z" fill="#efe4b3" stroke-width="8"/>
      <path d="M244 145h24v204h-24z" fill="#05072e" stroke-width="8"/>
      <path d="M232 350h48v17h-48z" fill="#efe4b3" stroke-width="7"/>
      <path d="M224 372h64" stroke-width="11"/>
      <path d="M208 397h96" stroke-width="17"/>
      <path d="M186 423h140" stroke-width="18"/>
      <path d="M162 448h188v25H162z" fill="#efe4b3" stroke-width="9"/>
    </g>

    <g>
      <path d="M77 229h133c-6 42-33 62-67 62s-60-20-66-62Z" fill="#05072e"/>
      <path d="M79 229c31 8 100 8 129 0-13 20-114 20-129 0Z" fill="#efe4b3"/>
      <path d="M95 254c13 18 29 27 50 30" fill="none" stroke="#efe4b3" stroke-width="7" stroke-linecap="round"/>
      <path d="M302 229h133c-6 42-33 62-67 62s-60-20-66-62Z" fill="#05072e"/>
      <path d="M304 229c31 8 100 8 129 0-13 20-114 20-129 0Z" fill="#efe4b3"/>
      <path d="M320 254c13 18 29 27 50 30" fill="none" stroke="#efe4b3" stroke-width="7" stroke-linecap="round"/>
    </g>
  </g>
</svg>
